<?xml version="1.0" encoding="UTF-8"?> <svg xmlns="http://www.w3.org/2000/svg" width="484" height="146" viewBox="0 0 484 146" fill="none"><path fill-rule="evenodd" clip-rule="evenodd" d="M39.8848 0.287567C16.7176 9.02172 0.265808 31.1409 0.265808 57.0476C0.265808 90.5976 27.8582 117.796 61.8951 117.796C86.3283 117.796 107.442 103.78 117.41 83.4602H107.386C98.2094 98.7151 81.3191 108.992 61.8951 108.992C32.6008 108.992 9.07002 85.6163 9.07002 57.0476C9.07002 36.1509 21.6592 18.0328 39.8848 9.80849V0.287567Z" fill="white"></path><path d="M46.1889 71.511H55.2043V43.7597C55.2043 36.9275 58.726 32.913 65.7694 32.913C72.8119 32.913 76.3343 36.9275 76.3343 43.7597V71.511H85.3499V43.7597C85.3499 31.9268 78.3768 24.5312 65.7694 24.5312C53.1619 24.5312 46.1889 31.9268 46.1889 43.7597V71.511ZM133.538 72.4266C147.905 72.4266 158.048 62.284 158.048 48.4787C158.048 34.6738 147.905 24.5312 133.538 24.5312C119.169 24.5312 109.026 34.6738 109.026 48.4787C109.026 62.284 119.169 72.4266 133.538 72.4266ZM133.538 64.1151C124.381 64.1151 118.184 57.4942 118.184 48.4787C118.184 39.4633 124.381 32.913 133.538 32.913C142.693 32.913 148.893 39.4633 148.893 48.4787C148.893 57.4942 142.693 64.1151 133.538 64.1151ZM182.747 71.511H199.088C215.217 71.511 223.67 62.284 223.67 48.4787C223.67 34.6738 215.217 25.4469 199.088 25.4469H182.747V71.511ZM191.762 63.1995V33.8285H199.088C209.724 33.8285 214.513 39.5337 214.513 48.4787C214.513 57.4238 209.724 63.1995 199.088 63.1995H191.762ZM248.367 71.511H282.315V63.1995H257.382V52.1412H278.23V44.1117H257.382V33.8285H282.315V25.4469H248.367V71.511ZM322.583 72.4266C332.867 72.4266 339.699 66.8617 339.699 57.9168C339.699 47.2109 331.387 45.7317 324.414 44.464C319.414 43.5484 315.117 42.7735 315.117 38.7588C315.117 35.3781 317.653 32.6311 322.725 32.6311C327.725 32.6311 330.332 35.1667 330.402 38.6884H338.925C338.572 30.2364 332.163 24.5312 322.655 24.5312C312.863 24.5312 306.385 30.5182 306.385 39.0406C306.385 49.7465 314.625 51.2255 321.598 52.4935C326.598 53.409 330.895 54.1837 330.895 58.1985C330.895 61.8612 328.148 64.3265 322.583 64.3265C317.09 64.3265 314.343 61.8612 314.273 58.1985H305.469C305.679 67.0032 312.371 72.4266 322.583 72.4266ZM398.466 71.511H427.556V63.9735H409.806L420.511 53.8317C425.23 49.3239 428.118 45.5909 428.118 39.6041C428.118 30.9407 422.414 24.5312 413.328 24.5312C404.171 24.5312 398.536 30.6591 398.536 40.0268V40.6606H406.848V39.6745C406.848 35.3077 409.102 32.3495 413.257 32.3495C417.483 32.3495 419.595 35.3781 419.595 39.5337C419.595 42.9144 417.483 45.8726 414.314 48.9014L398.466 64.3265V71.511ZM450.741 71.511H479.829V63.9735H462.081L472.786 53.8317C477.505 49.3239 480.393 45.5909 480.393 39.6041C480.393 30.9407 474.689 24.5312 465.601 24.5312C456.446 24.5312 450.811 30.6591 450.811 40.0268V40.6606H459.123V39.6745C459.123 35.3077 461.377 32.3495 465.532 32.3495C469.758 32.3495 471.87 35.3781 471.87 39.5337C471.87 42.9144 469.758 45.8726 466.589 48.9014L450.741 64.3265V71.511Z" fill="white"></path><path d="M241.39 108.114H243.61L246.07 94.1143H243.69L241.99 103.754L237.49 94.1143H235.27L232.81 108.114H235.19L236.89 98.4743L241.39 108.114ZM253.259 104.834C252.999 105.734 252.259 106.394 250.879 106.394C249.459 106.394 248.839 105.674 249.039 104.474L249.179 103.634H255.719L256.079 101.594C256.559 98.9543 254.899 97.6143 252.259 97.6143C249.619 97.6143 247.799 98.9543 247.319 101.594L246.839 104.334C246.379 106.954 248.039 108.314 250.699 108.314C253.239 108.314 254.899 107.114 255.499 104.834H253.259ZM249.579 101.434C249.819 100.154 250.779 99.5343 252.079 99.5343C253.379 99.5343 254.119 100.134 253.879 101.434L253.779 101.954H249.479L249.579 101.434ZM267.149 101.594C267.609 98.9543 265.949 97.6143 263.329 97.6143C260.669 97.6143 258.849 98.9543 258.389 101.594L257.909 104.334C257.449 106.974 259.109 108.314 261.729 108.314C264.389 108.314 266.209 106.934 266.669 104.294L267.149 101.594ZM264.409 104.454C264.189 105.734 263.229 106.394 261.909 106.394C260.629 106.394 259.869 105.774 260.109 104.474L260.649 101.434C260.889 100.154 261.829 99.5343 263.149 99.5343C264.449 99.5343 265.189 100.134 264.949 101.434L264.409 104.454ZM277.379 94.1143H274.739L268.759 103.194L268.399 105.254H274.279L273.779 108.114H276.159L276.659 105.254H278.639L278.999 103.194H277.019L277.559 100.174H275.179L274.659 103.194H271.319L277.379 94.1143ZM282.815 96.0543H285.035L285.495 93.4943H283.275L282.815 96.0543ZM280.595 108.654C280.335 110.154 279.715 110.474 278.315 110.254L277.995 112.074C281.235 112.754 282.375 111.194 282.855 108.534L284.735 97.8143H282.495L280.595 108.654ZM301.286 103.294C300.946 105.214 299.546 106.234 297.606 106.234C295.686 106.234 294.686 105.214 295.026 103.294L295.786 98.9743C296.126 97.0343 297.526 95.9943 299.466 95.9943C301.366 95.9943 302.366 97.0343 302.026 98.9743L301.286 103.294ZM304.386 99.1143C304.966 95.8143 303.026 93.9143 299.666 93.9143C296.286 93.9143 294.006 95.6743 293.406 98.9743L292.686 103.134C292.106 106.434 294.046 108.314 297.406 108.314C300.786 108.314 303.066 106.574 303.646 103.274L304.386 99.1143ZM305.459 108.114H307.679L308.779 101.774C309.039 100.334 310.159 99.5343 311.459 99.5343C312.599 99.5343 313.379 100.114 313.159 101.414L311.999 108.114H314.219L315.359 101.554C315.819 98.9143 314.439 97.6143 312.159 97.6143C310.919 97.6143 309.859 98.0143 309.079 98.8343L308.959 97.8143H307.259L305.459 108.114ZM316.998 108.114H319.218L321.818 93.3143H319.598L316.998 108.114ZM322.072 108.114H324.292L326.112 97.8143H323.872L322.072 108.114ZM324.192 96.0543H326.412L326.872 93.4943H324.652L324.192 96.0543ZM327.146 108.114H329.366L330.466 101.774C330.726 100.334 331.846 99.5343 333.146 99.5343C334.286 99.5343 335.066 100.114 334.846 101.414L333.686 108.114H335.906L337.046 101.554C337.506 98.9143 336.126 97.6143 333.846 97.6143C332.606 97.6143 331.546 98.0143 330.766 98.8343L330.646 97.8143H328.946L327.146 108.114ZM345.485 104.834C345.225 105.734 344.485 106.394 343.105 106.394C341.685 106.394 341.065 105.674 341.265 104.474L341.405 103.634H347.945L348.305 101.594C348.785 98.9543 347.125 97.6143 344.485 97.6143C341.845 97.6143 340.025 98.9543 339.545 101.594L339.065 104.334C338.605 106.954 340.265 108.314 342.925 108.314C345.465 108.314 347.125 107.114 347.725 104.834H345.485ZM341.805 101.434C342.045 100.154 343.005 99.5343 344.305 99.5343C345.605 99.5343 346.345 100.134 346.105 101.434L346.005 101.954H341.705L341.805 101.434ZM368.362 99.1343C368.962 95.8543 366.982 94.1143 363.622 94.1143H358.462L356.002 108.114H361.442C364.822 108.114 367.102 106.414 367.662 103.134L368.362 99.1343ZM365.302 103.134C364.962 105.034 363.582 106.034 361.622 106.034H358.722L360.462 96.1943H363.402C365.322 96.1943 366.342 97.2143 366.002 99.1143L365.302 103.134ZM376.294 104.834C376.034 105.734 375.294 106.394 373.914 106.394C372.494 106.394 371.874 105.674 372.074 104.474L372.214 103.634H378.754L379.114 101.594C379.594 98.9543 377.934 97.6143 375.294 97.6143C372.654 97.6143 370.834 98.9543 370.354 101.594L369.874 104.334C369.414 106.954 371.074 108.314 373.734 108.314C376.274 108.314 377.934 107.114 378.534 104.834H376.294ZM372.614 101.434C372.854 100.154 373.814 99.5343 375.114 99.5343C376.414 99.5343 377.154 100.134 376.914 101.434L376.814 101.954H372.514L372.614 101.434ZM385.474 108.114L391.034 97.8143H388.674L384.534 105.614L383.134 97.8143H380.874L382.834 108.114H385.474ZM397.399 104.834C397.139 105.734 396.399 106.394 395.019 106.394C393.599 106.394 392.979 105.674 393.179 104.474L393.319 103.634H399.859L400.219 101.594C400.699 98.9543 399.039 97.6143 396.399 97.6143C393.759 97.6143 391.939 98.9543 391.459 101.594L390.979 104.334C390.519 106.954 392.179 108.314 394.839 108.314C397.379 108.314 399.039 107.114 399.639 104.834H397.399ZM393.719 101.434C393.959 100.154 394.919 99.5343 396.219 99.5343C397.519 99.5343 398.259 100.134 398.019 101.434L397.919 101.954H393.619L393.719 101.434ZM401.67 108.114H403.89L406.49 93.3143H404.27L401.67 108.114ZM416.364 101.594C416.824 98.9543 415.164 97.6143 412.544 97.6143C409.884 97.6143 408.064 98.9543 407.604 101.594L407.124 104.334C406.664 106.974 408.324 108.314 410.944 108.314C413.604 108.314 415.424 106.934 415.884 104.294L416.364 101.594ZM413.624 104.454C413.404 105.734 412.444 106.394 411.124 106.394C409.844 106.394 409.084 105.774 409.324 104.474L409.864 101.434C410.104 100.154 411.044 99.5343 412.364 99.5343C413.664 99.5343 414.404 100.134 414.164 101.434L413.624 104.454ZM427.694 101.694C428.154 99.0743 426.834 97.6143 424.534 97.6143C423.274 97.6143 422.214 98.0343 421.434 98.8343L421.314 97.8143H419.614L417.094 112.114H419.314L420.194 107.234C420.794 107.954 421.734 108.314 422.934 108.314C425.234 108.314 426.774 106.954 427.234 104.334L427.694 101.694ZM421.134 101.794C421.394 100.374 422.474 99.5343 423.794 99.5343C424.954 99.5343 425.734 100.274 425.494 101.554L424.974 104.494C424.754 105.734 423.994 106.394 422.674 106.394C421.354 106.394 420.454 105.554 420.694 104.274L421.134 101.794ZM435.938 104.834C435.678 105.734 434.938 106.394 433.558 106.394C432.138 106.394 431.518 105.674 431.718 104.474L431.858 103.634H438.398L438.758 101.594C439.238 98.9543 437.578 97.6143 434.938 97.6143C432.298 97.6143 430.478 98.9543 429.998 101.594L429.518 104.334C429.058 106.954 430.718 108.314 433.378 108.314C435.918 108.314 437.578 107.114 438.178 104.834H435.938ZM432.258 101.434C432.498 100.154 433.458 99.5343 434.758 99.5343C436.058 99.5343 436.798 100.134 436.558 101.434L436.458 101.954H432.158L432.258 101.434ZM443.569 101.614C443.829 100.134 445.309 99.3743 447.629 99.7343L447.989 97.7343C446.549 97.3943 444.969 97.8943 443.849 99.0343L443.709 97.8143H442.009L440.209 108.114H442.429L443.569 101.614ZM321.342 136.114H330.742L331.082 134.034H324.062L324.742 130.154H330.782L331.142 128.074H325.122L325.802 124.194H332.822L333.202 122.114H323.802L321.342 136.114ZM339.276 136.114H341.756L339.056 131.034L343.576 125.814H340.916L338.056 129.294L336.296 125.814H333.796L336.516 130.894L331.996 136.114H334.636L337.516 132.634L339.276 136.114ZM353.382 129.694C353.842 127.074 352.522 125.614 350.222 125.614C348.962 125.614 347.902 126.034 347.122 126.834L347.002 125.814H345.302L342.782 140.114H345.002L345.882 135.234C346.482 135.954 347.422 136.314 348.622 136.314C350.922 136.314 352.462 134.954 352.922 132.334L353.382 129.694ZM346.822 129.794C347.082 128.374 348.162 127.534 349.482 127.534C350.642 127.534 351.422 128.274 351.182 129.554L350.662 132.494C350.442 133.734 349.682 134.394 348.362 134.394C347.042 134.394 346.142 133.554 346.382 132.274L346.822 129.794ZM364.446 129.594C364.906 126.954 363.246 125.614 360.626 125.614C357.966 125.614 356.146 126.954 355.686 129.594L355.206 132.334C354.746 134.974 356.406 136.314 359.026 136.314C361.686 136.314 363.506 134.934 363.966 132.294L364.446 129.594ZM361.706 132.454C361.486 133.734 360.526 134.394 359.206 134.394C357.926 134.394 357.166 133.774 357.406 132.474L357.946 129.434C358.186 128.154 359.126 127.534 360.446 127.534C361.746 127.534 362.486 128.134 362.246 129.434L361.706 132.454ZM380.722 125.814L380.202 126.934C379.662 126.054 378.622 125.614 377.302 125.614C375.002 125.614 373.462 126.974 373.002 129.594L372.542 132.214C372.082 134.834 373.402 136.314 375.702 136.314C377.002 136.314 378.102 135.874 378.882 135.014C379.062 135.894 379.622 136.314 380.562 136.314C381.062 136.314 381.682 136.194 382.362 135.954L382.682 134.154C382.302 134.254 382.002 134.294 381.782 134.294C381.082 134.294 381.002 133.834 381.142 133.094L382.442 125.814H380.722ZM375.262 129.434C375.482 128.194 376.242 127.534 377.542 127.534C378.882 127.534 379.782 128.354 379.542 129.654L379.102 132.114C378.842 133.554 377.742 134.394 376.442 134.394C375.282 134.394 374.522 133.634 374.742 132.374L375.262 129.434ZM384.365 136.114H386.585L387.685 129.774C387.945 128.334 389.065 127.534 390.365 127.534C391.505 127.534 392.285 128.114 392.065 129.414L390.905 136.114H393.125L394.265 129.554C394.725 126.914 393.345 125.614 391.065 125.614C389.825 125.614 388.765 126.014 387.985 126.834L387.865 125.814H386.165L384.365 136.114ZM396.304 132.214C395.844 134.834 397.164 136.314 399.464 136.314C400.724 136.314 401.784 135.894 402.564 135.094L402.684 136.114H404.384L406.984 121.314H404.764L403.824 126.714C403.244 125.994 402.264 125.614 401.064 125.614C398.764 125.614 397.224 126.974 396.764 129.594L396.304 132.214ZM399.024 129.434C399.244 128.194 400.004 127.534 401.304 127.534C402.644 127.534 403.544 128.354 403.304 129.654L402.864 132.114C402.604 133.554 401.504 134.394 400.204 134.394C399.044 134.394 398.284 133.634 398.504 132.374L399.024 129.434ZM421.874 131.834C421.874 133.534 420.554 134.234 418.714 134.234C416.914 134.234 415.994 133.514 416.294 131.814H413.914C413.374 134.894 415.274 136.314 418.514 136.314C422.574 136.314 424.394 133.974 424.394 131.294C424.394 129.854 423.634 128.654 421.334 128.214L418.934 127.774C417.894 127.574 417.434 127.014 417.434 126.314C417.434 124.694 418.714 123.994 420.534 123.994C422.334 123.994 423.194 124.714 422.894 126.414H425.274C425.814 123.334 423.994 121.914 420.754 121.914C416.594 121.914 414.914 124.354 414.914 126.814C414.914 128.334 415.754 129.534 417.974 129.954L420.374 130.394C421.434 130.594 421.874 131.154 421.874 131.834ZM436.666 125.814H434.446L433.346 132.154C433.086 133.594 431.966 134.394 430.666 134.394C429.526 134.394 428.746 133.814 428.966 132.514L430.126 125.814H427.906L426.766 132.374C426.306 135.014 427.686 136.314 429.966 136.314C431.206 136.314 432.266 135.914 433.046 135.094L433.166 136.114H434.866L436.666 125.814ZM437.705 136.114H439.925L441.025 129.774C441.285 128.334 442.265 127.534 443.305 127.534C444.365 127.534 444.885 128.114 444.645 129.414L443.465 136.114H445.705L446.805 129.774C447.045 128.334 448.025 127.534 449.085 127.534C450.145 127.534 450.625 128.114 450.405 129.414L449.245 136.114H451.465L452.605 129.554C453.065 126.914 451.825 125.614 449.765 125.614C448.485 125.614 447.445 126.134 446.705 127.194C446.285 126.134 445.285 125.614 444.005 125.614C442.885 125.614 442.005 126.014 441.325 126.794L441.205 125.814H439.505L437.705 136.114ZM454.244 136.114H456.464L457.564 129.774C457.824 128.334 458.804 127.534 459.844 127.534C460.904 127.534 461.424 128.114 461.184 129.414L460.004 136.114H462.244L463.344 129.774C463.584 128.334 464.564 127.534 465.624 127.534C466.684 127.534 467.164 128.114 466.944 129.414L465.784 136.114H468.004L469.144 129.554C469.604 126.914 468.364 125.614 466.304 125.614C465.024 125.614 463.984 126.134 463.244 127.194C462.824 126.134 461.824 125.614 460.544 125.614C459.424 125.614 458.544 126.014 457.864 126.794L457.744 125.814H456.044L454.244 136.114ZM470.783 136.114H473.003L474.823 125.814H472.583L470.783 136.114ZM472.903 124.054H475.123L475.583 121.494H473.363L472.903 124.054ZM480.457 127.734H483.317L483.657 125.814H480.797L481.457 122.054L479.117 122.714L478.577 125.814H476.757L476.417 127.734H478.217L477.397 132.434C476.897 135.274 477.517 136.894 481.857 136.114L482.157 134.274C479.817 134.614 479.317 134.194 479.617 132.494L480.457 127.734Z" fill="white"></path></svg> 